<svg xmlns="http://www.w3.org/2000/svg" width="480" height="480">
  <!-- background --><path style="fill:#2e283f" d="M0 0h480v480H0Z"/>
  <!-- floor pattern --><path style="fill:#fb2e86" d="M240 275v5h5v-5h-5zm5 5v5h5v-5h-5zm-5 0h-5v5h5v-5zm-20 15v5h5v-5h-5zm5 5v5h5v-5h-5zm5 0h5v-5h-5v5zm5 0v5h5v-5h-5zm5 0h5v-5h-5v5zm5 0v5h5v-5h-5zm5 0h5v-5h-5v5zm5 0v5h5v-5h-5zm5 5v5h5v-5h-5zm0 5h-5v5h5v-5zm0 5v5h5v-5h-5zm0 5h-5v5h5v-5zm0 5v5h5v-5h-5zm0 5h-5v5h5v-5zm0 5v5h5v-5h-5zm0 5h-5v5h5v-5zm0 5v5h5v-5h-5zm-5 0h-5v5h5v-5zm-5 0v-5h-5v5h5zm-5 0h-5v5h5v-5zm-5 0v-5h-5v5h5zm-5 0h-5v5h5v-5zm-5 0v-5h-5v5h5zm-5 0h-5v5h5v-5zm-5 0v-5h-5v5h5zm0-5h5v-5h-5v5zm0-5v-5h-5v5h5zm0-5h5v-5h-5v5zm0-5v-5h-5v5h5zm0-5h5v-5h-5v5zm0-5v-5h-5v5h5zm0-5h5v-5h-5v5zm5 0v5h5v-5h-5zm5 0h5v-5h-5v5zm5 0v5h5v-5h-5zm5 0h5v-5h-5v5zm5 0v5h5v-5h-5zm5 0h5v-5h-5v5zm0 5v5h5v-5h-5zm0 5h-5v5h5v-5zm0 5v5h5v-5h-5zm0 5h-5v5h5v-5zm0 5v5h5v-5h-5zm-5 0h-5v5h5v-5zm-5 0v-5h-5v5h5zm-5 0h-5v5h5v-5zm-5 0v-5h-5v5h5zm0-5h5v-5h-5v5zm0-5v-5h-5v5h5zm0-5h5v-5h-5v5zm5 0v5h5v-5h-5zm5 0h5v-5h-5v5zm0 5v5h5v-5h-5zm80-30v5h5v-5h-5zm5 5v5h5v-5h-5zm5 0h5v-5h-5v5zm0 5v5h5v-5h-5zm0 5h-5v5h5v-5zm0 5v5h5v-5h-5zm5 5v5h5v-5h-5zm5 5v5h5v-5h-5zm0 5h-5v5h5v-5zm0 5v5h5v-5h-5zm0 5h-5v5h5v-5zm0 5v5h5v-5h-5zm-5 0h-5v5h5v-5zm-5 0v-5h-5v5h5zm-5 0h-5v5h5v-5zm-5 0v-5h-5v5h5zm0-5h5v-5h-5v5zm5-5h5v-5h-5v5zm0-5v-5h-5v5h5zm0-5h5v-5h-5v5zm0-5v-5h-5v5h5zm5 5v5h5v-5h-5zm0 10v5h5v-5h-5zm-5-25v-5h-5v5h5zm-165-5v5h5v-5h-5zm0 5h-5v5h5v-5zm0 5v5h5v-5h-5zm0 5h-5v5h5v-5zm0 5v5h5v-5h-5zm0 5h-5v5h5v-5zm0 5v5h5v-5h-5zm0 5h-5v5h5v-5zm0 5v5h5v-5h-5zm-5 0h-5v5h5v-5zm-5 0v-5h-5v5h5zm-5 0h-5v5h5v-5zm-5 0v-5h-5v5h5zm-5 0h-5v5h5v-5zm-5 0v-5h-5v5h5zm-5 0h-5v5h5v-5zm-5 0v-5h-5v5h5zm10-5h5v-5h-5v5zm5-5h5v-5h-5v5zm5-5h5v-5h-5v5zm0-5v-5h-5v5h5zm5 0h5v-5h-5v5zm5-5h5v-5h-5v5zm0 5v5h5v-5h-5zm0 5h-5v5h5v-5zm0 5v5h5v-5h-5zm-5 0h-5v5h5v-5zm-25 25v5h5v-5h-5zm10 0v5h5v-5h-5zm10 0v5h5v-5h-5zm10 0v5h5v-5h-5zm10 0v5h5v-5h-5zm25 0v5h5v-5h-5zm30 0v5h5v-5h-5zm5 5v5h5v-5h-5zm5 0h5v-5h-5v5zm5 0v5h5v-5h-5zm5 0h5v-5h-5v5zm5 0v5h5v-5h-5zm5 0h5v-5h-5v5zm5 0v5h5v-5h-5zm5 0h5v-5h-5v5zm5 0v5h5v-5h-5zm5 0h5v-5h-5v5zm0 5v5h5v-5h-5zm0 5h-5v5h5v-5zm0 5v5h5v-5h-5zm0 5h-5v5h5v-5zm0 5v5h5v-5h-5zm0 5h-5v5h5v-5zm-5 0v-5h-5v5h5zm-5 0h-5v5h5v-5zm-5 0v-5h-5v5h5zm-5-5v-5h-5v5h5zm-5 0h-5v5h5v-5zm-5 0v-5h-5v5h5zm-5 0h-5v5h5v-5zm-5 0v-5h-5v5h5zm-5 0h-5v5h5v-5zm0-5v-5h-5v5h5zm-5-5v-5h-5v5h5zm0-5h5v-5h-5v5zm0-5v-5h-5v5h5zm5 5v5h5v-5h-5zm5 0h5v-5h-5v5zm5 0v5h5v-5h-5zm5 0h5v-5h-5v5zm5 0v5h5v-5h-5zm5 0h5v-5h-5v5zm5 0v5h5v-5h-5zm5 0h5v-5h-5v5zm0 5v5h5v-5h-5zm0 5h-5v5h5v-5zm-5 0v-5h-5v5h5zm-10-5h-5v5h5v-5zm-10 0h-5v5h5v-5zm85-20v5h5v-5h-5zm5 5v5h5v-5h-5zm5 0h5v-5h-5v5zm5 0v5h5v-5h-5zm5 0h5v-5h-5v5zm5 0v5h5v-5h-5zm5 0h5v-5h-5v5zm5 0v5h5v-5h-5zm5 5v5h5v-5h-5zm5 0h5v-5h-5v5zm5 0v5h5v-5h-5zm5 5v5h5v-5h-5zm0 5h-5v5h5v-5zm-5 5h-5v5h5v-5zm-5 5h-5v5h5v-5zm0 5v5h5v-5h-5zm5 5v5h5v-5h-5zm0 5h-5v5h5v-5zm-5 5h-5v5h5v-5zm0 5v5h5v-5h-5zm5 5v5h5v-5h-5zm5 5v5h5v-5h-5zm5 0h5v-5h-5v5zm5 0v5h5v-5h-5zm5 0h5v-5h-5v5zm5 0v5h5v-5h-5zm5 0h5v-5h-5v5zm5 0v5h5v-5h-5zm5 0h5v-5h-5v5zm5 0v5h5v-5h-5zm5 0h5v-5h-5v5zm5 0v5h5v-5h-5zm5 0h5v-5h-5v5zm5 0v5h5v-5h-5zm5 0h5v-5h-5v5zm5 0v5h5v-5h-5zm5 0h5v-5h-5v5zm5 0v5h5v-5h-5zm5 0h5v-5h-5v5zm5 0v5h5v-5h-5zm5 0h5v-5h-5v5zm5 0v5h5v-5h-5zm5 0h5v-5h-5v5zm0 5v5h5v-5h-5zm0 5h-5v5h5v-5zm0 5v5h5v-5h-5zm0 5h-5v5h5v-5zm0 5v5h5v-5h-5zm0 5h-5v5h5v-5zm0 5v5h5v-5h-5zm0 5h-5v5h5v-5zm0 5v5h5v-5h-5zm0 5h-5v5h5v-5zm-5 0v-5h-5v5h5zm-5 0h-5v5h5v-5zm-5 0v-5h-5v5h5zm-5 0h-5v5h5v-5zm-5 0v-5h-5v5h5zm-5 0h-5v5h5v-5zm-5 0v-5h-5v5h5zm-5 0h-5v5h5v-5zm-5 0v-5h-5v5h5zm-5 0h-5v5h5v-5zm-5 0v-5h-5v5h5zm-5 0h-5v5h5v-5zm-5 0v-5h-5v5h5zm-5 0h-5v5h5v-5zm-5 0v-5h-5v5h5zm-5 0h-5v5h5v-5zm-5 0v-5h-5v5h5zm-5 0h-5v5h5v-5zm-5 0v-5h-5v5h5zm-5 0h-5v5h5v-5zm-5 0v-5h-5v5h5zm-5 0h-5v5h5v-5zm-5 0v-5h-5v5h5zm-5 0h-5v5h5v-5zm-5 0v-5h-5v5h5zm-5 0h-5v5h5v-5zm-5 0v-5h-5v5h5zm-5 0h-5v5h5v-5zm-5 0v-5h-5v5h5zm-5 0h-5v5h5v-5zm-5 0v-5h-5v5h5zm-5 0h-5v5h5v-5zm-5 0v-5h-5v5h5zm-5 0h-5v5h5v-5zm-5 0v-5h-5v5h5zm-5 0h-5v5h5v-5zm-5 0v-5h-5v5h5zm-5 0h-5v5h5v-5zm-5 0v-5h-5v5h5zm-5 0h-5v5h5v-5zm-5 0v-5h-5v5h5zm-5 0h-5v5h5v-5zm-5 0v-5h-5v5h5zm-5 0h-5v5h5v-5zm-5 0v-5h-5v5h5zm-5 0h-5v5h5v-5zm-5 0v-5h-5v5h5zm-5 0h-5v5h5v-5zm-5 0v-5h-5v5h5zm-5 0h-5v5h5v-5zm-5 0v-5h-5v5h5zm-5 0h-5v5h5v-5zm-5 0v-5h-5v5h5zm-5 0h-5v5h5v-5zm-5 0v-5h-5v5h5zm-5 0h-5v5h5v-5zm-5 0v-5h-5v5h5zm-5 0h-5v5h5v-5zm-5 0v-5h-5v5h5zm-5 0h-5v5h5v-5zm-5 0v-5h-5v5h5zm-5 0h-5v5h5v-5zm-5 0v-5h-5v5h5zm-5 0h-5v5h5v-5zm-5 0v-5h-5v5h5zm-5 0h-5v5h5v-5zm-5 0v-5h-5v5h5zm-5 0h-5v5h5v-5zm-5 0v-5h-5v5h5zm-5 0h-5v5h5v-5zm-5 0v-5h-5v5h5zm-5 0h-5v5h5v-5zm-5 0v-5h-5v5h5zm-5 0h-5v5h5v-5zm-5 0v-5h-5v5h5zm-5 0h-5v5h5v-5zm-5 0v-5h-5v5h5zm-5 0h-5v5h5v-5zm-5 0v-5h-5v5h5zm-5 0h-5v5h5v-5zm-5 0v-5h-5v5h5zm-5 0h-5v5h5v-5zm-5 0v-5h-5v5h5zm-5 0h-5v5h5v-5zm-5 0v-5h-5v5h5zm-5 0h-5v5h5v-5zm-5 0v-5h-5v5h5zm-5 0h-5v5h5v-5zm-5 0v-5h-5v5h5zm-5 0h-5v5h5v-5zm-5 0v-5h-5v5h5zm-5 0h-5v5h5v-5zm-5 0v-5H5v5h5zm-5 0H0v5h5v-5zm0-5v-5H0v5h5zm0-5h5v-5H5v5zm0-5v-5H0v5h5zm0-5h5v-5H5v5zm0-5v-5H0v5h5zm0-5h5v-5H5v5zm0-5v-5H0v5h5zm0-5h5v-5H5v5zm0-5v-5H0v5h5zm0-5h5v-5H5v5zm5 0v5h5v-5h-5zm5 0h5v-5h-5v5zm5 0v5h5v-5h-5zm5 0h5v-5h-5v5zm5 0v5h5v-5h-5zm5 0h5v-5h-5v5zm5 0v5h5v-5h-5zm5 0h5v-5h-5v5zm5 0v5h5v-5h-5zm5 0h5v-5h-5v5zm5-5h5v-5h-5v5zm5-5h5v-5h-5v5zm5 0v5h5v-5h-5zm5 0h5v-5h-5v5zm5 0v5h5v-5h-5zm5 0h5v-5h-5v5zm5 0v5h5v-5h-5zm5 0h5v-5h-5v5zm5 0v5h5v-5h-5zm5 0h5v-5h-5v5zm5 0v5h5v-5h-5zm5 0h5v-5h-5v5zm5 0v5h5v-5h-5zm5 0h5v-5h-5v5zm5 0v5h5v-5h-5zm5 0h5v-5h-5v5zm5 0v5h5v-5h-5zm5 0h5v-5h-5v5zm5 0v5h5v-5h-5zm5 0h5v-5h-5v5zm5-5h5v-5h-5v5zm0-5v-5h-5v5h5zm-5-5v-5h-5v5h5zm0-5h5v-5h-5v5zm5 0v5h5v-5h-5zm5 0h5v-5h-5v5zm5 0v5h5v-5h-5zm5 0h5v-5h-5v5zm0 5v5h5v-5h-5zm0 5h-5v5h5v-5zm-5 5h-5v5h5v-5zm-5 5h-5v5h5v-5zm0 5v5h5v-5h-5zm5 5v5h5v-5h-5zm5 5v5h5v-5h-5zm5 5v5h5v-5h-5zm5 0h5v-5h-5v5zm5 0v5h5v-5h-5zm5 0h5v-5h-5v5zm5 0v5h5v-5h-5zm5 0h5v-5h-5v5zm5-5h5v-5h-5v5zm5-5h5v-5h-5v5zm5-5h5v-5h-5v5zm0-5v-5h-5v5h5zm5 0h5v-5h-5v5zm5 0v5h5v-5h-5zm5 0h5v-5h-5v5zm5 0v5h5v-5h-5zm5 0h5v-5h-5v5zm5 0v5h5v-5h-5zm5 5v5h5v-5h-5zm5 0h5v-5h-5v5zm5 0v5h5v-5h-5zm5 5v5h5v-5h-5zm5 5v5h5v-5h-5zm5 5v5h5v-5h-5zm5 0h5v-5h-5v5zm5 0v5h5v-5h-5zm5 0h5v-5h-5v5zm5 0v5h5v-5h-5zm5 0h5v-5h-5v5zm5-5h5v-5h-5v5zm0-5v-5h-5v5h5zm0-5h5v-5h-5v5zm0-5v-5h-5v5h5zm-5-5v-5h-5v5h5zm0-5h5v-5h-5v5zm0-5v-5h-5v5h5zm-5-5v-5h-5v5h5zm-5-5v-5h-5v5h5zm0-5h5v-5h-5v5zm0-5v-5h-5v5h5zm0-5h5v-5h-5v5zm0-5v-5h-5v5h5zm5 0h5v-5h-5v5zm5 0v5h5v-5h-5zm5 0h5v-5h-5v5zm5 0v5h5v-5h-5zm5 5v5h5v-5h-5zm5 0h5v-5h-5v5zm5 0v5h5v-5h-5zm5 0h5v-5h-5v5zm5 0v5h5v-5h-5zm5 0h5v-5h-5v5zm5 0v5h5v-5h-5zm5 5v5h5v-5h-5zm5 0h5v-5h-5v5zm-5 5h-5v5h5v-5zm-5 5h-5v5h5v-5zm0 5v5h5v-5h-5zm5 5v5h5v-5h-5zm0 5h-5v5h5v-5zm-5 5h-5v5h5v-5zm0 5v5h5v-5h-5zm5 5v5h5v-5h-5zm5 5v5h5v-5h-5zm5 5v5h5v-5h-5zm5 5v5h5v-5h-5zm5 0h5v-5h-5v5zm5 0v5h5v-5h-5zm5 0h5v-5h-5v5zm5 0v5h5v-5h-5zm5 0h5v-5h-5v5zm5 0v5h5v-5h-5zm5 0h5v-5h-5v5zm5 0v5h5v-5h-5zm5 0h5v-5h-5v5zm5 0v5h5v-5h-5zm5 0h5v-5h-5v5zm5 0v5h5v-5h-5zm5 0h5v-5h-5v5zm5 0v5h5v-5h-5zm5 0h5v-5h-5v5zm5 0v5h5v-5h-5zm5 0h5v-5h-5v5zm5 0v5h5v-5h-5zm5 0h5v-5h-5v5zm0 5v5h5v-5h-5zm0 5h-5v5h5v-5zm0 5v5h5v-5h-5zm0 5h-5v5h5v-5zm0 5v5h5v-5h-5zm0 5h-5v5h5v-5zm-5 0v-5h-5v5h5zm-5 0h-5v5h5v-5zm-5 0v-5h-5v5h5zm-5 0h-5v5h5v-5zm-5 0v-5h-5v5h5zm-5 0h-5v5h5v-5zm-5 0v-5h-5v5h5zm-5 0h-5v5h5v-5zm-5 0v-5h-5v5h5zm-5 0h-5v5h5v-5zm-5 0v-5h-5v5h5zm-5 0h-5v5h5v-5zm-5 0v-5h-5v5h5zm-5 0h-5v5h5v-5zm-5 0v-5h-5v5h5zm-5 0h-5v5h5v-5zm-5 0v-5h-5v5h5zm-5 0h-5v5h5v-5zm-5 0v-5h-5v5h5zm-5 0h-5v5h5v-5zm-5 0v-5h-5v5h5zm-5 0h-5v5h5v-5zm-5 0v-5h-5v5h5zm-5 0h-5v5h5v-5zm-5 0v-5h-5v5h5zm-5 0h-5v5h5v-5zm-5 0v-5h-5v5h5zm-5 0h-5v5h5v-5zm-5 0v-5h-5v5h5zm-5 0h-5v5h5v-5zm-5 0v-5h-5v5h5zm-5 0h-5v5h5v-5zm-5 0v-5h-5v5h5zm-5 0h-5v5h5v-5zm-5 0v-5h-5v5h5zm-5 0h-5v5h5v-5zm-5 0v-5h-5v5h5zm-5 0h-5v5h5v-5zm-5 0v-5h-5v5h5zm-5 0h-5v5h5v-5zm-5 0v-5h-5v5h5zm-5 0h-5v5h5v-5zm-5 0v-5h-5v5h5zm-5 0h-5v5h5v-5zm-5 0v-5h-5v5h5zm-5 0h-5v5h5v-5zm-5 0v-5h-5v5h5zm-5 0h-5v5h5v-5zm-5 0v-5h-5v5h5zm-5 0h-5v5h5v-5zm-5 0v-5h-5v5h5zm-5 0h-5v5h5v-5zm-5 0v-5h-5v5h5zm-5 0h-5v5h5v-5zm-5 0v-5h-5v5h5zm-5 0h-5v5h5v-5zm-5 0v-5h-5v5h5zm-5 0h-5v5h5v-5zm-5 0v-5h-5v5h5zm-5 0h-5v5h5v-5zm-5 0v-5h-5v5h5zm-5 0h-5v5h5v-5zm-5 0v-5h-5v5h5zm-5 0h-5v5h5v-5zm-5 0v-5h-5v5h5zm-5 0h-5v5h5v-5zm-5 0v-5h-5v5h5zm-5 0h-5v5h5v-5zm-5 0v-5h-5v5h5zm-5 0h-5v5h5v-5zm-5 0v-5h-5v5h5zm-5 0h-5v5h5v-5zm-5 0v-5h-5v5h5zm-5 0h-5v5h5v-5zm-5 0v-5h-5v5h5zm-5 0h-5v5h5v-5zm-5 0v-5h-5v5h5zm-5 0h-5v5h5v-5zm-5 0v-5h-5v5h5zm-5 0h-5v5h5v-5zm-5 0v-5h-5v5h5zm-5 0h-5v5h5v-5zm-5 0v-5h-5v5h5zm-5 0h-5v5h5v-5zm-5 0v-5h-5v5h5zm-5 0h-5v5h5v-5zm-5 0v-5h-5v5h5zm-5 0h-5v5h5v-5zm-5 0v-5h-5v5h5zm-5 0h-5v5h5v-5zm0-5v-5h-5v5h5zm0-5h5v-5h-5v5zm0-5v-5h-5v5h5zm0-5h5v-5h-5v5zm0-5v-5h-5v5h5zm0-5h5v-5h-5v5zm5 0v5h5v-5h-5zm5 0h5v-5h-5v5zm5 0v5h5v-5h-5zm5 0h5v-5h-5v5zm5 0v5h5v-5h-5zm5 0h5v-5h-5v5zm5 0v5h5v-5h-5zm5 0h5v-5h-5v5zm5-5h5v-5h-5v5zm5-5h5v-5h-5v5zm5 0v5h5v-5h-5zm5 0h5v-5h-5v5zm5 0v5h5v-5h-5zm5 0h5v-5h-5v5zm5 0v5h5v-5h-5zm5 0h5v-5h-5v5zm5 0v5h5v-5h-5zm5 0h5v-5h-5v5zm5 0v5h5v-5h-5zm5 0h5v-5h-5v5zm5 0v5h5v-5h-5zm5 0h5v-5h-5v5zm5 0v5h5v-5h-5zm5 0h5v-5h-5v5zm5 0v5h5v-5h-5zm5 0h5v-5h-5v5zm5 0v5h5v-5h-5zm5 0h5v-5h-5v5zm5 0v5h5v-5h-5zm5 5v5h5v-5h-5zm5 5v5h5v-5h-5zm5 5v5h5v-5h-5zm5 5v5h5v-5h-5zm5 0h5v-5h-5v5zm5 0v5h5v-5h-5zm5 0h5v-5h-5v5zm5 0v5h5v-5h-5zm5 0h5v-5h-5v5zm5-5h5v-5h-5v5zm5-5h5v-5h-5v5zm5-5h5v-5h-5v5zm5-5h5v-5h-5v5zm5 0v5h5v-5h-5zm5 0h5v-5h-5v5zm5 0v5h5v-5h-5zm5 0h5v-5h-5v5zm5 0v5h5v-5h-5zm5 5v5h5v-5h-5zm5 0h5v-5h-5v5zm5 0v5h5v-5h-5zm5 5v5h5v-5h-5zm5 5v5h5v-5h-5zm5 5v5h5v-5h-5zm5 0h5v-5h-5v5zm5 0v5h5v-5h-5zm5 0h5v-5h-5v5zm5 0v5h5v-5h-5zm5 0h5v-5h-5v5zm5-5h5v-5h-5v5zm5-5h5v-5h-5v5zm5-5h5v-5h-5v5zm0-5v-5h-5v5h5zm0-5h5v-5h-5v5zm0-5v-5h-5v5h5zm-5-5v-5h-5v5h5zm0-5h5v-5h-5v5zm0-5v-5h-5v5h5zm-5-5v-5h-5v5h5zm-5-5v-5h-5v5h5zm0-5h5v-5h-5v5zm0-5v-5h-5v5h5zm5 0h5v-5h-5v5zm5 0v5h5v-5h-5zm5 5v5h5v-5h-5zm5 0h5v-5h-5v5zm5 0v5h5v-5h-5zm5 0h5v-5h-5v5zm5 0v5h5v-5h-5zm5 0h5v-5h-5v5zm-5 5h-5v5h5v-5zm0 5v5h5v-5h-5zm5 5v5h5v-5h-5zm0 5h-5v5h5v-5zm-5 5h-5v5h5v-5zm0 5v5h5v-5h-5zm5 5v5h5v-5h-5zm5 5v5h5v-5h-5zm5 5v5h5v-5h-5zm5 5v5h5v-5h-5zm5 5v5h5v-5h-5zm5 5v5h5v-5h-5zm5 0h5v-5h-5v5zm5 0v5h5v-5h-5zm5 0h5v-5h-5v5zm5 0v5h5v-5h-5zm5 0h5v-5h-5v5zm5 0v5h5v-5h-5zm5 0h5v-5h-5v5zm5 0v5h5v-5h-5zm5 0h5v-5h-5v5zm5 0v5h5v-5h-5zm5 0h5v-5h-5v5zm5 0v5h5v-5h-5zm5 0h5v-5h-5v5zm5 0v5h5v-5h-5zm5 0h5v-5h-5v5zm5 0v5h5v-5h-5zm5 0h5v-5h-5v5zm0 5v5h5v-5h-5zm0 5h-5v5h5v-5zm-5 0v-5h-5v5h5zm-5 0h-5v5h5v-5zm-5 0v-5h-5v5h5zm-5 0h-5v5h5v-5zm-5 0v-5h-5v5h5zm-5 0h-5v5h5v-5zm-5 0v-5h-5v5h5zm-5 0h-5v5h5v-5zm-5 0v-5h-5v5h5zm-5 0h-5v5h5v-5zm-5 0v-5h-5v5h5zm-5 0h-5v5h5v-5zm-5 0v-5h-5v5h5zm-5 0h-5v5h5v-5zm-5 0v-5h-5v5h5zm-5 0h-5v5h5v-5zm-5 0v-5h-5v5h5zm-5 0h-5v5h5v-5zm-5 0v-5h-5v5h5zm-5 0h-5v5h5v-5zm-5 0v-5h-5v5h5zm-5 0h-5v5h5v-5zm-5 0v-5h-5v5h5zm-5 0h-5v5h5v-5zm-5 0v-5h-5v5h5zm-5 0h-5v5h5v-5zm-5 0v-5h-5v5h5zm-5 0h-5v5h5v-5zm-5 0v-5h-5v5h5zm-5 0h-5v5h5v-5zm-5 0v-5h-5v5h5zm-5 0h-5v5h5v-5zm-5 0v-5h-5v5h5zm-5 0h-5v5h5v-5zm-5 0v-5h-5v5h5zm-5 0h-5v5h5v-5zm-5 0v-5h-5v5h5zm-5 0h-5v5h5v-5zm-5 0v-5h-5v5h5zm-5 0h-5v5h5v-5zm-5 0v-5h-5v5h5zm-5 0h-5v5h5v-5zm-5 0v-5h-5v5h5zm-5 0h-5v5h5v-5zm-5 0v-5h-5v5h5zm-5 0h-5v5h5v-5zm-5 0v-5h-5v5h5zm-5 0h-5v5h5v-5zm-5 0v-5h-5v5h5zm-5 0h-5v5h5v-5zm-5 0v-5h-5v5h5zm-5 0h-5v5h5v-5zm-5 0v-5h-5v5h5zm-5 0h-5v5h5v-5zm-5 0v-5h-5v5h5zm-5 0h-5v5h5v-5zm-5 0v-5h-5v5h5zm-5 0h-5v5h5v-5zm-5 0v-5h-5v5h5zm-5 0h-5v5h5v-5zm-5 0v-5h-5v5h5zm-5 0h-5v5h5v-5zm-5 0v-5h-5v5h5zm-5 0h-5v5h5v-5zm-5 0v-5h-5v5h5zm-5 0h-5v5h5v-5zm-5 0v-5h-5v5h5zm-5 0h-5v5h5v-5zm-5 0v-5h-5v5h5zm-5 0h-5v5h5v-5zm-5 0v-5h-5v5h5zm-5 0h-5v5h5v-5zm-5 0v-5h-5v5h5zm-5 0h-5v5h5v-5zm-5 0v-5h-5v5h5zm-5 0h-5v5h5v-5zm-5 0v-5h-5v5h5zm-5 0h-5v5h5v-5zm-5 0v-5h-5v5h5zm-5 0h-5v5h5v-5zm-5 0v-5h-5v5h5zm-5 0h-5v5h5v-5zm-5 0v-5h-5v5h5zm-5 0h-5v5h5v-5zm-5 0v-5h-5v5h5zm-5 0h-5v5h5v-5zm0-5v-5h-5v5h5zm0-5h5v-5h-5v5zm5 0v5h5v-5h-5zm5 0h5v-5h-5v5zm5 0v5h5v-5h-5zm5 0h5v-5h-5v5zm5 0v5h5v-5h-5zm5 0h5v-5h-5v5zm5-5h5v-5h-5v5zm5-5h5v-5h-5v5zm5 0v5h5v-5h-5zm5 0h5v-5h-5v5zm5 0v5h5v-5h-5zm5 0h5v-5h-5v5zm5 0v5h5v-5h-5zm5 0h5v-5h-5v5zm5 0v5h5v-5h-5zm5 0h5v-5h-5v5zm5 0v5h5v-5h-5zm5 0h5v-5h-5v5zm5 0v5h5v-5h-5zm5 0h5v-5h-5v5zm5 0v5h5v-5h-5zm5 0h5v-5h-5v5zm5 0v5h5v-5h-5zm5 0h5v-5h-5v5zm5 0v5h5v-5h-5zm5 0h5v-5h-5v5zm5 0v5h5v-5h-5zm5 5v5h5v-5h-5zm5 5v5h5v-5h-5zm-5 0h-5v5h5v-5zm-5 0v-5h-5v5h5zm-5 0h-5v5h5v-5zm-5 0v-5h-5v5h5zm-5 0h-5v5h5v-5zm-5 0v-5h-5v5h5zm-5 0h-5v5h5v-5zm-5 0v-5h-5v5h5zm-5 0h-5v5h5v-5zm-5 0v-5h-5v5h5zm-5 0h-5v5h5v-5zm-5 0v-5h-5v5h5zm-5 0h-5v5h5v-5zm-5 0v-5h-5v5h5zm-5 0h-5v5h5v-5zm-5 0v-5h-5v5h5zm-5 0h-5v5h5v-5zm-5 0v-5h-5v5h5zm-5 0h-5v5h5v-5zm-5 0v-5h-5v5h5zm-5 0h-5v5h5v-5zm145 5h5v-5h-5v5zm5-5h5v-5h-5v5zm5-5h5v-5h-5v5zm5-5h5v-5h-5v5zm5 0v5h5v-5h-5zm5 0h5v-5h-5v5zm5 0v5h5v-5h-5zm5 0h5v-5h-5v5zm5 0v5h5v-5h-5zm5 5v5h5v-5h-5zm5 0h5v-5h-5v5zm5 0v5h5v-5h-5zm5 5v5h5v-5h-5zm-5 0h-5v5h5v-5zm-10 0h-5v5h5v-5zm-5 0v-5h-5v5h5zm-5 0h-5v5h5v-5zm-5 0v-5h-5v5h5zm-5 0h-5v5h5v-5zm-5 0v-5h-5v5h5zm-5 0h-5v5h5v-5zm85 5h5v-5h-5v5zm5-5h5v-5h-5v5zm5-5h5v-5h-5v5zm5-5h5v-5h-5v5zm5-5h5v-5h-5v5zm0-5v-5h-5v5h5zm0-5h5v-5h-5v5zm0-5v-5h-5v5h5zm-5-5v-5h-5v5h5zm0-5h5v-5h-5v5zm0-5v-5h-5v5h5zm-5-5v-5h-5v5h5zm-5-5v-5h-5v5h5zm10 5h5v-5h-5v5zm5 0v5h5v-5h-5zm5 5v5h5v-5h-5zm0 5h-5v5h5v-5zm0 15v5h5v-5h-5zm5 5v5h5v-5h-5zm5 5v5h5v-5h-5zm5 5v5h5v-5h-5zm5 5v5h5v-5h-5zm5 5v5h5v-5h-5zm-5 0h-5v5h5v-5zm-5 0v-5h-5v5h5zm-5 0h-5v5h5v-5zm-5 0v-5h-5v5h5zm-5 0h-5v5h5v-5zm-5 0v-5h-5v5h5zm-5 0h-5v5h5v-5zm5-5h5v-5h-5v5zm5-5h5v-5h-5v5zm5 0v5h5v-5h-5zm-170-30v-5h-5v5h5zm-15-30v5h5v-5h-5zm5 5v5h5v-5h-5zm5 0h5v-5h-5v5zm5 0v5h5v-5h-5zm5 0h5v-5h-5v5zm5 0v5h5v-5h-5zm5 0h5v-5h-5v5zm-30 0h-5v5h5v-5zm30 10v5h5v-5h-5z"/>
  <!-- body secondary highlights --><path style="fill:#fb2e86" d="M210 140v5h5v-5h-5zm0 5h-5v5h5v-5zm0 5v5h5v-5h-5zm5 5v5h5v-5h-5zm55-15v10h-5v10h-5v10h-10v5h5v5h5v-5h5v5h5v-5h5v-5h-10v-5h10v-5h-5v-5h5v-10h5v-5h-10zm10 5v5h5v-5h-5zm-5 30v5h5v-5h-5zm5 5v10h5v-5h5v-5h-10zm0 10h-10v5h-5v5h-5v5h15v-10h5v-5zm-5 15v5h5v-5h-5zm5 0h5v-5h-5v5zm5-5h10v-10h-5v5h-5v5zm10-10h5v10h-5v5h15v-5h-5v-20h-5v-5h-5v15zm15 10h5v5h5v-10h-10v5zm5 5h-5v5h5v-5zm-5 5h-5v10h5v-10zm-5 10h-10v5h-5v10h10v-10h5v-5zm-10 0v-5h-5v5h5zm-20-10h-15v5h15v-5zm0 5v10h5v-10h-5zm-15-5v-5h-5v5h5zm-5-5v-5h-5v5h5zm10-10v-5h-10v5h10zm-10-5v-5h-5v5h5zm-5-5v-10h-5v10h5zm25-5h-5v5h5v-5zm-10 0h-5v5h5v-5zm-75-30v5h5v-5h-5zm100 0v5h5v-5h-5zm5 5v5h5v-5h-5zm5 5v5h5v-5h-5zm-100-5v5h5v-5h-5zm-25 15v5h5v-5h-5zm25 0v5h5v-5h-5zm105 0v5h5v-5h-5zm5 5v5h5v-5h-5zm-95 0v5h5v-5h-5zm100 10v5h5v-5h-5zm0 35v10h5v-10h-5zm0 15v5h5v-5h-5zm0 5h-5v5h5v-5zm0 5v10h5v-10h-5zm0 10h-5v5h5v-5zm-5 0v-5h-5v5h5zm-115-10v15h5v-15h-5zm0 15h-10v5h5v5h5v-10zm20-5v5h5v-5h-5zm5 5v5h-5v5h10v-10h-5zm5 10v5h5v-5h-5zm40-10v5h5v-5h-5zm0 5h-5v5h5v-5zm10 0v5h10v-5h-10zm0 5h-5v5h5v-5zm30-5v5h5v-5h-5zm-130 5v5h5v-5h-5zm115 0v5h5v-5h-5zm30 0v5h5v-5h-5zm0 5h-5v10h5v-10zm-130 0v5h5v-5h-5zm80 5v5h5v-5h-5zm25 0v10h5v-10h-5zm5 10v10h5v-10h-5zm5 10v5h5v-5h-5zm5 0h5v-10h-5v10zm-90-15v5h5v-5h-5zm-35 5v5h5v-5h-5zm100 5v5h5v-5h-5zm-80 5v5h5v-5h-5zm-25 10v5h5v-5h-5zm25 0v5h5v-5h-5zm95 10v5h5v-5h-5zm-115 10v5h5v-5h-5zm125 0v5h5v-5h-5zm5 5v5h5v-5h-5zm-115 0v5h5v-5h-5zm90 5v5h5v-5h-5zm-120 5v5h5v-5h-5zm20 5v5h5v-5h-5z"/>
  <!-- barbell + left shoe --><path style="fill:#fffcf3" d="M35 295v5h-5v5h-5v10h-5v35H0v5h20v10h5v-30h5v-20h5v-10h5v-10h-5zm405 0v5h5v-5h-5zm5 5v5h5v-5h-5zm0 10v5h5v-5h-5zm5 5v15h5v15h5v10h5v-25h-5v-10h-5v-5h-5zm15 40v5h15v-5h-15zM40 315v10h5v-10h-5zm15 0v15h5v-15h-5zm-20 35v25h5v-25h-5zm0 25h-5v5h-5v10h5v-5h5v-10zm20-25v5h35v-5H55zm40 0v5h15v-5H95zm20 0v5h45v-5h-45zm100 0v5h25v-5h-25zm30 0v5h5v-5h-5zm25 0v5h15v-5h-15zm50 0v5h55v-5h-55zm60 0v5h10v-5h-10zm10 5v5h35v-5h-35zm35 0h5v-5h-5v5zm20-5v5h5v-5h-5zm5 5v5h5v-5h-5zm-5 20v5h5v-5h-5zm5 5v5h5v-5h-5zm-400 5v5h5v-5h-5zm0 10v5h5v-5h-5zm390 5v10h5v-10h-5zM270 395v5h5v-5h-5zm5 5v5h5v-5h-5zm5 0h5v-5h-5v5zm5 0v5h5v-5h-5zm5 0h5v-5h-5v5zm5 0v5h5v-5h-5zm0 5h-5v5h-5v-5h-5v10h-5v5h5v5h15v-5h5v-5h-5v-10zm5 10h5v-5h-5v5zm-25 0v-5h-5v5h5zm-5-5v-10h-5v10h5z"/>
  <!-- body highlights + right shoe --><path style="fill:#fffcf3" d="M265 130v5h5v-5h-5zm5 5v5h5v-5h-5zm-70 10v5h-5v5h-10v5h-5v15h-5v5h5v5h5v-5h5v5h5v-5h5v-10h5v-5h-10v-5h5v-5h10v-5h-5v-5h-5zm10 5h5v5h5v-10h-10v5zm10 5v5h5v-5h-5zm-30 30h-5v5h5v-5zm-5 5h-5v5h5v-5zm-5 5h-5v5h5v-5zm-5 5h-5v5h5v-5zm0 5v5h5v-5h-5zm0 5h-5v5h5v-5zm0 5v5h5v-5h-5zm0 5h-5v5h5v-5zm0 5v5h5v-5h-5zm0 5h-5v5h5v-5zm0 5v5h5v-5h-5zm0 5h-5v5h5v-5zm0 5v5h5v-5h-5zm5 5v5h-5v5h-5v5h5v5h5v5h-5v5h5v20h-10v5h5v15h5v5h-5v5h5v5h-5v5h5v5h-5v5h-5v-5h-5v10h10v5h5v-5h5v5h5v-25h-5v-20h-5v-5h5v-20h5v-15h5v15h5v20h10v-5h-5v-5h5v-5h-5v-5h5v-10h-5v-5h-5v-5h5v-5h-5v-5h-5v10h-5v-5h-5v-5h5v-5h-5v-5h-5zm10 5h5v-10h-5v10zm5-10h5v-5h-5v5zm5 15h5v5h5v-5h5v-5h-15v5zm15 0v5h5v-5h-5zm0 5h-5v5h-5v5h5v5h5v10h5v-5h5v-5h5v-5h-10v-5h-5v-5zm0 25h-5v5h5v-5zm0 5v5h5v-5h-5zm0 5h-5v5h5v-5zm-5 10v10h-5v5h-5v10h5v10h-5v5h10v-5h5v-35h-5zm-40 35h5v-5h-5v5zm0-5v-5h-5v5h5zm0-5h5v-5h-5v5zm5-10v-5h-5v5h5zm0-70v-5h-5v5h5zm5-65v-5h-5v5h5zm85-45v5h5v-5h-5zm0 5h-5v5h-5v5h10v-10zm-10 10h-5v5h5v-5zm0 5v5h5v-5h-5zm20-20v10h5v5h-5v5h-10v5h15v10h10v10h5v-15h5v5h5v10h5v5h5v-15h-5v-5h-5v-10h-5v-5h-5v-5h-5v-5h-10v-5h-5zm15 45h-5v5h5v-5zm-5 5h-5v5h5v-5zm-5 5h-5v5h5v-5zm-5 5h-15v5h15v-5zm0 5v5h5v-5h-5zm5 5v10h5v-10h-5zm0 10h-5v5h5v-5zm-20-20v-5h-5v5h5zm-5-5v-10h-5v10h5zm0-10h5v-5h-5v5zm0-5v-5h-5v5h5zm5 15h5v-5h-5v5zm20-20h-5v5h-5v-5h-5v10h15v-10zm-15 0v-5h-5v5h5zm5 0h5v-5h-5v5zm-55-15v10h10v-5h-5v-5h-5zm0 10h-5v5h5v-5zm-5 5h-5v5h5v-5zm35-10v5h5v-5h-5zm-5 10v5h-5v10h-5v10h-5v5h5v5h5v5h5v-10h5v-30h-5zm55 15v5h5v-5h-5zm20 10v5h-5v10h-5v5h-5v10h-5v15h15v5h5v-10h-5v-5h5v-5h5v-5h-5v-10h5v-15h-5zm0 35v5h5v-5h-5zm0 15v5h-5v10h-5v5h5v15h5v10h-5v5h-5v20h-5v5h5v5h5v-5h5v5h5v-50h-5v-10h5v-20h-5zm5 20v10h5v-10h-5zm-15-55v-5h-10v5h10zm-10 0h-5v5h5v-5zm-95-10v5h5v-5h-5zm5 5v10h5v-10h-5zm60 50v5h10v-5h-10zm10 5v5h-10v10h5v-5h5v5h-5v5h10v20h5v5h5v10h5v-5h5v-5h-5v-35h-5v-5h-10v-5h-5zm15 55h-5v5h5v-5zm0 5v5h5v-5h-5zm0 5h-5v5h5v-5zm-25-60v-5h-5v5h5zm20 20h5v5h-5v-5zm10 45v5h-5v15h5v-5h5v10h5v-5h15v-5h-5v-5h5v-5h-15v-5h-10zM200 385v5h5v-5h-5zm5 5v5h5v-5h-5zm5 5v10h5v-10h-5zm0 10h-5v10h-5v-5h-5v-5h-5v5h-5v5h-5v10h25v-5h5v-15zm-30 10v-5h-5v5h5zm-5 0h-5v5h5v-5zm5-5h5v-5h-5v5zm5-5h5v-5h-5v5zm0-5v-5h-5v5h5zm5 0h5v-5h-5v5zm5-5h5v-5h-5v5zm5 0v5h5v-5h-5zm0 5h-5v5h5v-5z"/>
  <!-- hair texture + text --><path style="fill:#fffcf3" d="M135 45v20h10v-5h-5V50h5v-5h-10zm10 5v10h5V50h-5zm10-5v20h15v-5h-10v-5h5v-5h5v-5h-15zm25 0v5h5v-5h-5zm5 5v5h-5v-5h-5v15h5v-5h5v5h5V50h-5zm10-5v20h10v-5h-5V50h5v-5h-10zm10 5v10h5V50h-5zm10-5v20h15v-5h-10V45h-5zm20 0v20h5V45h-5zm10 0v20h5V55h5v-5h5v-5h-15zm20 0v5h5v15h5V50h5v-5h-15zm30 5v20h5v-5h5v-5h-5v-5h5v-5h-10zm10 5v5h5v-5h-5zm10-5v15h5V55h5v-5h-10zm10 5v10h5V55h-5zm15-5v5h5v5h-5v5h-5v5h15V50h-10zm0 10v-5h-5v5h5zm-55 0v5h5v-5h-5zM235 110v5h5v-5h-5zm5 5v5h5v-5h-5zm5 0h5v-5h-5v5zm5 0v5h5v-5h-5zm5 5v5h5v-5h-5zm0 5h-5v5h5v-5zm0 5v5h5v-5h-5zm0 5h-5v5h5v-5zm-5 0v-5h-5v5h5zm-5 0h-5v5h5v-5zm-5 0v-5h-5v5h5zm0-5h5v-5h-5v5zm0-5v-5h-5v5h5zm-5-5v-5h-5v5h5zm10 5h5v-5h-5v5z"/>
</svg>
